<?xml version="1.0" encoding="iso-8859-1"?>
<!-- Generator: Adobe Illustrator 19.0.0, SVG Export Plug-In . SVG Version: 6.00 Build 0)  -->
<svg xmlns="http://www.w3.org/2000/svg" xmlns:xlink="http://www.w3.org/1999/xlink" version="1.1" id="Layer_1" x="0px" y="0px" viewBox="0 0 504.111 504.111" style="enable-background:new 0 0 504.111 504.111;" xml:space="preserve" width="512px" height="512px">
<path id="SVGCleanerid_0" style="fill:#960E08;" d="M368.419,100.98l-34.712-34.712l-34.712,34.712l18.934,18.934v79.68h-48.912  V67.057l26.034-26.034L254.028,0l-41.023,41.023l26.034,26.034v132.536h-48.912v-79.68l18.934-18.934l-34.712-34.712l-34.712,34.712  l18.934,18.934v104.924c0,1.578,1.578,2.367,3.945,3.156c0.789,0.789,1.578,1.578,3.156,1.578h71.79v38.656h-9.467  c-4.733,0-7.889,4.733-7.889,11.045c0,6.311,3.156,11.045,7.889,11.045h9.467v12.622h-9.467c-4.733,0-7.889,4.733-7.889,11.045  c0,6.311,3.156,11.045,7.889,11.045h9.467V475.71c0,10.256,7.1,18.145,14.989,18.145c8.678,0,14.989-7.889,14.989-18.145V326.607  h9.467c4.733,0,7.889-4.733,7.889-11.045s-3.156-11.045-7.889-11.045h-9.467v-13.411h9.467c4.733,0,7.889-4.733,7.889-11.045  s-3.156-11.045-7.889-11.045h-9.467v-38.656h71.79c0.789,0,2.367-0.789,3.156-1.578c2.367-0.789,3.945-1.578,3.945-3.156V119.914  L368.419,100.98z"/>
<g>
	<path id="SVGCleanerid_0_1_" style="fill:#960E08;" d="M368.419,100.98l-34.712-34.712l-34.712,34.712l18.934,18.934v79.68h-48.912   V67.057l26.034-26.034L254.028,0l-41.023,41.023l26.034,26.034v132.536h-48.912v-79.68l18.934-18.934l-34.712-34.712   l-34.712,34.712l18.934,18.934v104.924c0,1.578,1.578,2.367,3.945,3.156c0.789,0.789,1.578,1.578,3.156,1.578h71.79v38.656h-9.467   c-4.733,0-7.889,4.733-7.889,11.045c0,6.311,3.156,11.045,7.889,11.045h9.467v12.622h-9.467c-4.733,0-7.889,4.733-7.889,11.045   c0,6.311,3.156,11.045,7.889,11.045h9.467V475.71c0,10.256,7.1,18.145,14.989,18.145c8.678,0,14.989-7.889,14.989-18.145V326.607   h9.467c4.733,0,7.889-4.733,7.889-11.045s-3.156-11.045-7.889-11.045h-9.467v-13.411h9.467c4.733,0,7.889-4.733,7.889-11.045   s-3.156-11.045-7.889-11.045h-9.467v-38.656h71.79c0.789,0,2.367-0.789,3.156-1.578c2.367-0.789,3.945-1.578,3.945-3.156V119.914   L368.419,100.98z"/>
</g>
<path style="fill:#5E0000;" d="M333.707,67.057l-34.712,34.712l18.934,18.934v79.68h-48.912V67.057l26.034-26.034L254.028,0  l-1.578,1.578v494.644c0.789,0,0.789,0,1.578,0c8.678,0,14.989-7.889,14.989-18.145v-151.47h9.467c4.733,0,7.889-4.733,7.889-11.045  s-3.156-11.045-7.889-11.045h-9.467v-13.411h9.467c4.733,0,7.889-4.733,7.889-11.045s-3.156-11.045-7.889-11.045h-9.467v-38.656  h71.79c0.789,0,2.367-0.789,3.156-1.578c2.367-0.789,3.945-1.578,3.945-3.156V119.914l18.934-18.934L333.707,67.057z"/>
<path style="fill:#E06E10;" d="M377.097,504.111c0.789-7.889,0.789-7.1,0.789-11.045c0-11.834,6.311-25.245,6.311-25.245  c-8.678-3.156-24.456,14.2-24.456,14.2c14.2-26.823-11.045-65.479-11.045-65.479c-12.622,55.223-61.535,63.901-67.846,50.49  s1.578-22.089,1.578-22.089c-40.234,3.945-59.957,38.656-59.957,38.656c34.712-63.112-1.578-97.035-1.578-97.035  c11.834,35.501-43.39,59.168-48.912,39.445c-5.522-19.723,14.2-27.612,14.2-27.612s-61.535-14.2-86.78,50.49  c-14.989,33.923-39.445,47.334-60.746,55.223H377.097z"/>
<g>
	<path style="fill:#EDB151;" d="M262.706,491.488c-12.622,1.578-22.878,5.522-30.767,10.256h26.034   C258.761,495.433,262.706,491.488,262.706,491.488z"/>
	<path style="fill:#EDB151;" d="M78.102,495.433c-0.789,3.156-2.367,0.789-3.156,8.678h138.847   c11.834-47.334-13.411-69.424-13.411-69.424c11.834,35.501-43.39,58.379-48.912,38.656c-5.522-19.723,14.2-27.612,14.2-27.612   S103.347,430.743,78.102,495.433z"/>
	<path style="fill:#EDB151;" d="M308.462,501.744h34.712c-2.367-20.512-14.2-38.656-14.2-38.656   C324.24,480.444,317.14,493.066,308.462,501.744z"/>
	<circle style="fill:#EDB151;" cx="369.997" cy="276.117" r="11.045"/>
	<circle style="fill:#EDB151;" cx="356.586" cy="347.908" r="3.156"/>
</g>
<g>
	<circle style="fill:#E06E10;" cx="451.254" cy="340.018" r="14.2"/>
	<circle style="fill:#E06E10;" cx="434.687" cy="272.961" r="3.156"/>
	<circle style="fill:#E06E10;" cx="308.462" cy="371.575" r="4.733"/>
	<circle style="fill:#E06E10;" cx="403.131" cy="325.818" r="6.311"/>
	<circle style="fill:#E06E10;" cx="424.431" cy="411.02" r="25.245"/>
</g>
<g>
</g>
<g>
</g>
<g>
</g>
<g>
</g>
<g>
</g>
<g>
</g>
<g>
</g>
<g>
</g>
<g>
</g>
<g>
</g>
<g>
</g>
<g>
</g>
<g>
</g>
<g>
</g>
<g>
</g>
</svg>
