<?xml version="1.0" encoding="utf-8"?>
<!-- Generator: Adobe Illustrator 19.0.0, SVG Export Plug-In . SVG Version: 6.00 Build 0)  -->
<svg version="1.1" xmlns="http://www.w3.org/2000/svg" xmlns:xlink="http://www.w3.org/1999/xlink" x="0px" y="0px"
	 viewBox="0 0 353.3 353.5" style="enable-background:new 0 0 353.3 353.5;" xml:space="preserve">
<style type="text/css">
	.st0{fill:#C4C4C4;}
	.st1{fill:#960E08;}
	.st2{fill:#5E0000;}
	.st3{fill:#E06E10;}
	.st4{fill:#EDB151;}
</style>
<g id="Layer_1">
	<g id="XMLid_1_">
		<path id="XMLid_15_" class="st0" d="M178.8,4.7C79.3,4.7,4.6,66.2,4.6,147.8c0,52.8,25,94.9,72,119v75.3c0,1.9,0.8,3.7,2.5,4.7
			c0.8,0.4,1.5,0.6,2.4,0.6c1,0,2-0.3,2.8-0.9l84.6-56l0.2,0c3.2,0.2,6.4,0.4,9.7,0.4c99.5,0,174.5-61.5,174.5-143.1
			C353.3,66.2,278.3,4.7,178.8,4.7z M178.8,280.4c-3.1,0-6.1-0.2-9.1-0.3l-2-0.1c-1.1-0.1-2.3,0.2-3.2,0.9l-78,51.5v-68.7
			c0-2-1.1-3.8-2.9-4.7c-56.8-28.1-68.8-75.9-68.8-111c0-75.6,70.5-132.5,163.9-132.5c93.4,0,163.9,57,163.9,132.5
			C342.7,223.4,272.2,280.4,178.8,280.4z"/>
		<path id="XMLid_22_" class="st0" d="M346.1,147.3c0,77.1-71.9,135.3-167.4,135.3c-3.1,0-6.2-0.2-9.3-0.3l-2-0.1
			c-1.1-0.1-2.3,0.2-3.3,0.9l-79.6,52.6v-70.2c0-2-1.1-3.9-2.9-4.8c-58-28.7-70.2-77.5-70.2-113.4C11.4,70.1,83.4,12,178.8,12
			C274.2,12,346.1,70.1,346.1,147.3z"/>
	</g>
</g>
<g id="Layer_3">
</g>
<g id="Layer_2">
	<path id="SVGCleanerid_0" class="st1" d="M206,83.5L193,70.2l-13.3,12.9l7,7.3l-0.5,30.1l-18.5-0.3l0.8-50.1l10-9.7l-15.3-15.7
		L147.6,60l9.7,10l-0.8,50.1l-18.5-0.3l0.5-30.1l7.3-7l-12.9-13.3l-13.3,12.9l7,7.3l-0.6,39.6c0,0.6,0.6,0.9,1.5,1.2
		c0.3,0.3,0.6,0.6,1.2,0.6l27.1,0.4l-0.2,14.6l-3.6-0.1c-1.8,0-3,1.7-3,4.1c0,2.4,1.1,4.2,2.9,4.2l3.6,0.1l-0.1,4.8l-3.6-0.1
		c-1.8,0-3,1.7-3,4.1c0,2.4,1.1,4.2,2.9,4.2l3.6,0.1l-0.9,56.9c-0.1,3.9,2.6,6.9,5.6,6.9c3.3,0,5.7-2.9,5.8-6.8l0.8-56.3l3.6,0.1
		c1.8,0,3-1.7,3-4.1c0-2.4-1.1-4.2-2.9-4.2l-3.6-0.1l0.1-5.1l3.6,0.1c1.8,0,3-1.7,3-4.1c0-2.4-1.1-4.2-2.9-4.2l-3.6-0.1l0.2-14.6
		l27.1,0.4c0.3,0,0.9-0.3,1.2-0.6c0.9-0.3,1.5-0.6,1.5-1.2l0.6-39.9L206,83.5z"/>
	<g id="XMLid_38_">
		<path id="SVGCleanerid_0_1_" class="st1" d="M206,83.5L193,70.2l-13.3,12.9l7,7.3l-0.5,30.1l-18.5-0.3l0.8-50.1l10-9.7l-15.3-15.7
			L147.6,60l9.7,10l-0.8,50.1l-18.5-0.3l0.5-30.1l7.3-7l-12.9-13.3l-13.3,12.9l7,7.3l-0.6,39.6c0,0.6,0.6,0.9,1.5,1.2
			c0.3,0.3,0.6,0.6,1.2,0.6l27.1,0.4l-0.2,14.6l-3.6-0.1c-1.8,0-3,1.7-3,4.1c0,2.4,1.1,4.2,2.9,4.2l3.6,0.1l-0.1,4.8l-3.6-0.1
			c-1.8,0-3,1.7-3,4.1c0,2.4,1.1,4.2,2.9,4.2l3.6,0.1l-0.9,56.9c-0.1,3.9,2.6,6.9,5.6,6.9c3.3,0,5.7-2.9,5.8-6.8l0.8-56.3l3.6,0.1
			c1.8,0,3-1.7,3-4.1c0-2.4-1.1-4.2-2.9-4.2l-3.6-0.1l0.1-5.1l3.6,0.1c1.8,0,3-1.7,3-4.1c0-2.4-1.1-4.2-2.9-4.2l-3.6-0.1l0.2-14.6
			l27.1,0.4c0.3,0,0.9-0.3,1.2-0.6c0.9-0.3,1.5-0.6,1.5-1.2l0.6-39.9L206,83.5z"/>
	</g>
	<path id="XMLid_18_" class="st2" d="M193,70.5l-13.3,12.9l7,7.3l-0.5,30.1l-18.5-0.3l0.8-50.4l10-9.7l-15.3-15.7l-0.6,0.6
		l-2.8,186.9c0.3,0,0.3,0,0.6,0c3.3,0,5.7-2.9,5.8-6.8l0.9-57.2l3.6,0.1c1.8,0,3-1.7,3-4.1c0-2.4-1.1-4.2-2.9-4.2l-3.6-0.1l0.1-5.1
		l3.6,0.1c1.8,0,3-1.7,3-4.1c0-2.4-1.1-4.2-2.9-4.2l-3.6-0.1l0.2-14.6l27.1,0.4c0.3,0,0.9-0.3,1.2-0.6c0.9-0.3,1.5-0.6,1.5-1.2
		l0.6-39.9l7.3-7L193,70.5z"/>
	<path id="XMLid_17_" class="st3" d="M207,235.9c0.3-3,0.3-2.7,0.4-4.2c0.1-4.5,2.5-9.5,2.5-9.5c-3.3-1.2-9.3,5.2-9.3,5.2
		c5.5-10.1-3.8-24.8-3.8-24.8c-5.1,20.8-23.6,23.8-25.9,18.7c-2.3-5.1,0.7-8.3,0.7-8.3c-15.2,1.3-22.9,14.3-22.9,14.3
		c13.5-23.6,0-36.7,0-36.7c4.3,13.5-16.7,22.1-18.7,14.6c-2-7.5,5.5-10.4,5.5-10.4s-23.2-5.7-33.1,18.6
		c-5.9,12.7-15.2,17.7-23.3,20.5L207,235.9L207,235.9z"/>
	<g id="XMLid_28_">
		<path id="XMLid_16_" class="st4" d="M269.2,234c-4.8,0.5-8.7,2-11.7,3.7l9.8,0.1C267.6,235.5,269.2,234,269.2,234z"/>
		<path id="XMLid_14_" class="st4" d="M199.4,234.4c-0.3,1.2-0.9,0.3-1.2,3.3l52.5,0.8c4.7-17.8-4.7-26.3-4.7-26.3
			c4.3,13.5-16.7,21.8-18.7,14.3c-2-7.5,5.5-10.4,5.5-10.4S209.3,210.1,199.4,234.4z"/>
		<path id="XMLid_13_" class="st4" d="M286.4,238.1l13.1,0.2c-0.8-7.8-5.1-14.7-5.1-14.7C292.5,230.2,289.7,234.9,286.4,238.1z"/>
		<circle id="XMLid_12_" class="st4" cx="310.9" cy="153.2" r="4.2"/>
		<circle id="XMLid_11_" class="st4" cx="305.4" cy="180.3" r="1.2"/>
	</g>
	<g id="XMLid_20_">
		<circle id="XMLid_10_" class="st3" cx="235.9" cy="174.3" r="5.4"/>
		<circle id="XMLid_9_" class="st3" cx="230" cy="148.9" r="1.2"/>
		<circle id="XMLid_7_" class="st3" cx="181.8" cy="185.4" r="1.8"/>
		<circle id="XMLid_3_" class="st3" cx="217.8" cy="168.7" r="2.4"/>
		<circle id="XMLid_2_" class="st3" cx="225.4" cy="201" r="9.5"/>
	</g>
</g>
</svg>
