<?xml version="1.0" encoding="utf-8"?>
<!-- Generator: Adobe Illustrator 19.0.0, SVG Export Plug-In . SVG Version: 6.00 Build 0)  -->
<svg version="1.1" xmlns="http://www.w3.org/2000/svg" xmlns:xlink="http://www.w3.org/1999/xlink" x="0px" y="0px"
	 viewBox="0 0 353.3 353.5" style="enable-background:new 0 0 353.3 353.5;" xml:space="preserve">
<style type="text/css">
	.st0{fill:#C4C4C4;}
	.st1{fill:#ECF0F1;}
	.st2{fill:#F3D55B;}
</style>
<g id="Layer_1">
	<g id="XMLid_1_">
		<path id="XMLid_15_" class="st0" d="M178.8,4.7C79.3,4.7,4.6,66.2,4.6,147.8c0,52.8,25,94.9,72,119v75.3c0,1.9,0.8,3.7,2.5,4.7
			c0.8,0.4,1.5,0.6,2.4,0.6c1,0,2-0.3,2.8-0.9l84.6-56l0.2,0c3.2,0.2,6.4,0.4,9.7,0.4c99.5,0,174.5-61.5,174.5-143.1
			C353.3,66.2,278.3,4.7,178.8,4.7z M178.8,280.4c-3.1,0-6.1-0.2-9.1-0.3l-2-0.1c-1.1-0.1-2.3,0.2-3.2,0.9l-78,51.5v-68.7
			c0-2-1.1-3.8-2.9-4.7c-56.8-28.1-68.8-75.9-68.8-111c0-75.6,70.5-132.5,163.9-132.5c93.4,0,163.9,57,163.9,132.5
			C342.7,223.4,272.2,280.4,178.8,280.4z"/>
		<path id="XMLid_22_" class="st0" d="M346.1,147.3c0,77.1-71.9,135.3-167.4,135.3c-3.1,0-6.2-0.2-9.3-0.3l-2-0.1
			c-1.1-0.1-2.3,0.2-3.3,0.9l-79.6,52.6v-70.2c0-2-1.1-3.9-2.9-4.8c-58-28.7-70.2-77.5-70.2-113.4C11.4,70.1,83.4,12,178.8,12
			C274.2,12,346.1,70.1,346.1,147.3z"/>
	</g>
</g>
<g id="Layer_3">
</g>
<g id="Layer_2">
	<path id="XMLid_5_" class="st1" d="M150.5,101.7c-6.4-7.9-16.8-17.3-38.6-20.3c-21.2-2.9-40.4,13.1-38.7,33.2
		c0.5,5.7,2.2,12.4,5.7,20.1c0,0,34.8,111.2-22.2,111.2c0,0,28.9,6.4,57.5-15.2c8.9-6.7,15.8-15.1,20.6-24.4
		c6.6-12.6,8.6-26.9,6.9-40.9c-1.6-13.2-2-33.6,9.1-44C156.2,116.2,155.1,107.4,150.5,101.7z"/>
	<path id="XMLid_4_" class="st1" d="M203.1,101.7c6.4-7.9,16.8-17.3,38.6-20.3c21.2-2.9,40.4,13.1,38.7,33.2
		c-0.5,5.7-2.2,12.4-5.7,20.1c0,0-34.8,111.2,22.2,111.2c0,0-28.9,6.4-57.5-15.2c-8.9-6.7-15.8-15.1-20.6-24.4
		c-6.6-12.6-8.6-26.9-6.9-40.9c1.6-13.2,2-33.6-9.1-44C197.4,116.2,198.5,107.4,203.1,101.7z"/>
	<path id="XMLid_7_" class="st2" d="M176.6,30.3c-33.5,0-60.7,10.5-60.7,23.4s27.2,23.4,60.7,23.4s60.7-10.5,60.7-23.4
		S210.1,30.3,176.6,30.3z M215.2,55.1c-7.4,3.2-20.7,6.4-38.7,6.4s-31.3-3.3-38.7-6.4c-1.2-0.5-1.2-2.2,0-2.7
		c7.4-3.2,20.7-6.4,38.7-6.4s31.3,3.3,38.7,6.4C216.5,52.9,216.5,54.5,215.2,55.1z"/>
</g>
</svg>
