<?xml version="1.0" encoding="iso-8859-1"?>
<!-- Generator: Adobe Illustrator 16.0.0, SVG Export Plug-In . SVG Version: 6.00 Build 0)  -->
<!DOCTYPE svg PUBLIC "-//W3C//DTD SVG 1.1//EN" "http://www.w3.org/Graphics/SVG/1.1/DTD/svg11.dtd">
<svg version="1.1" id="Capa_1" xmlns="http://www.w3.org/2000/svg" xmlns:xlink="http://www.w3.org/1999/xlink" x="0px" y="0px"
	 width="275.593px" height="275.593px" viewBox="0 0 275.593 275.593" style="enable-background:new 0 0 275.593 275.593;"
	 xml:space="preserve">
<g>
	<g>
		<path d="M19.604,122.026l-0.049,0.579c-0.175,4.807,1.295,9.084,4.145,12.043c4.182,4.333,10.921,5.327,17.373,2.413
			l25.104-13.654l24.626,13.42l0.483,0.238c2.495,1.127,5.003,1.701,7.442,1.701c3.846,0,7.369-1.461,9.929-4.119
			c2.854-2.959,4.322-7.236,4.145-12.043l-3.307-28.227l18.561-19.067l0.569-0.665c3.547-4.669,4.625-10.132,2.959-14.986
			c-1.664-4.856-5.869-8.503-11.527-10.013l-28.217-4.574L79.735,20.704l-0.425-0.73c-3.274-5.008-8.188-7.885-13.479-7.885
			c-5.003,0-9.787,2.623-13.124,7.196l-14.699,25.77l-25.1,4.214l-0.784,0.177c-5.617,1.605-9.763,5.325-11.39,10.205
			c-1.624,4.879-0.529,10.347,3.003,14.991l19.13,19.732L19.604,122.026z M14.94,65.676c-0.588-0.863-0.63-1.4-0.602-1.491
			c0.033-0.091,0.392-0.501,1.405-0.845l31.36-5.267l17.392-30.602c0.693-0.859,1.223-1.041,1.332-1.041
			c0.101,0,0.621,0.205,1.281,1.104L82.276,58.06l34.368,5.523c0.927,0.292,1.319,0.642,1.365,0.697
			c0.014,0.124-0.074,0.63-0.597,1.4L94.451,89.275l4.023,34.1c0,0.443-0.042,0.784-0.091,1.018
			c-0.229-0.037-0.562-0.124-0.999-0.306l-31.211-17.005l-31.209,17.005c-0.425,0.177-0.754,0.264-0.999,0.301
			c-0.051-0.233-0.091-0.574-0.091-1.013l4.025-34.1L14.94,65.676z"/>
		<path d="M263.299,49.642l-28.218-4.574l-12.102-24.369l-0.43-0.726c-3.271-5.008-8.186-7.885-13.474-7.885
			c-5.003,0-9.787,2.623-13.124,7.196l-14.701,25.77l-25.1,4.214l-0.784,0.177c-5.614,1.605-9.764,5.325-11.388,10.205
			s-0.531,10.347,3.001,14.991l19.131,19.732l-3.263,27.652l-0.051,0.579c-0.178,4.807,1.297,9.084,4.144,12.043
			c4.183,4.333,10.926,5.327,17.371,2.413l25.104-13.654l24.628,13.42l0.485,0.238c2.492,1.127,5.003,1.701,7.439,1.701
			c3.846,0,7.369-1.461,9.932-4.119c2.852-2.959,4.317-7.236,4.145-12.043l-3.31-28.227l18.562-19.067l0.569-0.665
			c3.547-4.669,4.625-10.132,2.959-14.986C273.165,54.804,268.955,51.152,263.299,49.642z M260.661,65.676l-22.966,23.595
			l4.027,34.1c0,0.444-0.047,0.784-0.094,1.018c-0.229-0.037-0.564-0.124-0.998-0.306l-31.214-17.004l-31.204,17.004
			c-0.425,0.175-0.756,0.262-0.999,0.301c-0.056-0.236-0.093-0.574-0.093-1.013l4.022-34.1l-22.962-23.599
			c-0.588-0.866-0.63-1.4-0.602-1.491c0.032-0.091,0.392-0.501,1.404-0.845l31.363-5.267l17.389-30.602
			c0.691-0.859,1.224-1.041,1.335-1.041c0.099,0,0.621,0.206,1.279,1.104l15.168,30.525l34.368,5.523
			c0.929,0.292,1.321,0.642,1.367,0.698C261.273,64.399,261.18,64.906,260.661,65.676z"/>
		<path d="M188.882,174.387l-28.212-4.574l-12.107-24.367l-0.42-0.732c-3.275-5.008-8.186-7.885-13.476-7.885
			c-5.006,0-9.79,2.623-13.124,7.199l-14.701,25.767l-25.104,4.219l-0.779,0.178c-5.61,1.601-9.759,5.32-11.383,10.197
			c-1.631,4.882-0.537,10.347,2.996,14.991l19.13,19.732l-3.265,27.656l-0.046,0.579c-0.178,4.808,1.295,9.082,4.142,12.041
			c4.187,4.341,10.931,5.32,17.378,2.413l25.104-13.651l24.618,13.418l0.481,0.233c2.497,1.134,5.008,1.703,7.443,1.703
			c3.851,0,7.37-1.465,9.932-4.116c2.852-2.959,4.322-7.233,4.145-12.041l-3.309-28.227l18.565-19.069l0.564-0.663
			c3.547-4.672,4.63-10.137,2.959-14.99C198.753,179.548,194.548,175.894,188.882,174.387z M186.25,190.427l-22.963,23.593
			l4.023,34.098c0,0.452-0.042,0.783-0.089,1.021c-0.233-0.042-0.56-0.126-0.999-0.308l-31.208-17.007l-31.211,17.007
			c-0.432,0.177-0.756,0.261-0.999,0.299c-0.049-0.233-0.091-0.569-0.091-1.018l4.022-34.098l-22.964-23.597
			c-0.586-0.868-0.63-1.4-0.603-1.494c0.04-0.093,0.393-0.504,1.407-0.845l31.358-5.269l17.392-30.598
			c0.693-0.858,1.223-1.045,1.335-1.045c0.101,0,0.621,0.205,1.279,1.105l15.17,30.523l34.363,5.525
			c0.929,0.294,1.316,0.64,1.368,0.695C186.861,189.148,186.772,189.652,186.25,190.427z"/>
	</g>
</g>
<g>
</g>
<g>
</g>
<g>
</g>
<g>
</g>
<g>
</g>
<g>
</g>
<g>
</g>
<g>
</g>
<g>
</g>
<g>
</g>
<g>
</g>
<g>
</g>
<g>
</g>
<g>
</g>
<g>
</g>
</svg>
