<?xml version="1.0" encoding="iso-8859-1"?>
<!-- Generator: Adobe Illustrator 18.1.1, SVG Export Plug-In . SVG Version: 6.00 Build 0)  -->
<svg version="1.1" id="Capa_1" xmlns="http://www.w3.org/2000/svg" xmlns:xlink="http://www.w3.org/1999/xlink" x="0px" y="0px"
	 viewBox="0 0 76 76" style="enable-background:new 0 0 76 76;" xml:space="preserve">
<g id="_x37_7_Essential_Icons_1_">
	<path id="Bar_Graph" d="M74,0H56c-1.1,0-2,0.9-2,2v33.8H40V22c0-1.1-0.9-2-2-2H20c-1.1,0-2,0.9-2,2v30.9H2c-1.1,0-2,0.9-2,2V74
		c0,1.1,0.9,2,2,2h72c1.1,0,2-0.9,2-2V2C76,0.9,75.1,0,74,0z M18,72H4V56.9h14V72z M36,72H22V24h14V72z M54,72H40V39.8h14V72z
		 M72,72H58V4h14V72z"/>
</g>
<g>
</g>
<g>
</g>
<g>
</g>
<g>
</g>
<g>
</g>
<g>
</g>
<g>
</g>
<g>
</g>
<g>
</g>
<g>
</g>
<g>
</g>
<g>
</g>
<g>
</g>
<g>
</g>
<g>
</g>
</svg>
